<svg xmlns="http://www.w3.org/2000/svg" width="8.051" height="16.204" viewBox="0 0 8.051 16.204">
  <path id="Path_25" data-name="Path 25" d="M122.843,54.765a.5.5,0,0,1-.458-.2.906.906,0,0,1-.2-.509V52.931a.307.307,0,0,1,.051-.2c0-.051.051-.1.051-.153a.187.187,0,0,0,.051-.153c0-.051.051-.1.1-.153s.1-.1.1-.153.051-.051.1-.153l.153-.152c.05,0,.1-.051.152-.153q.153-.077.153-.153l4.484-4.586a.441.441,0,0,0,.153-.306.37.37,0,0,0-.2-.306L123.1,41.873a1.4,1.4,0,0,0-.255-.2c-.1-.1-.2-.153-.2-.2l-.153-.153c-.1-.1-.153-.152-.153-.2s-.051-.1-.1-.2-.051-.153-.1-.255V39.274a.7.7,0,0,1,.663-.713.824.824,0,0,1,.509.2l5.809,5.656.612.611a1.781,1.781,0,0,1,.3.459,1.569,1.569,0,0,1,.153.662v1.07c0,.051-.051.153-.051.2a.385.385,0,0,0-.051.2c0,.051-.051.1-.1.2a.65.65,0,0,1-.1.153.881.881,0,0,1-.153.2l-.153.152-.2.2c-.1.1-.2.153-.2.2L123.4,54.51A.87.87,0,0,1,122.843,54.765Z" transform="translate(-122.13 -38.561)" fill="#ee4036"/>
</svg>
