<svg xmlns="http://www.w3.org/2000/svg" width="8.102" height="16.102" viewBox="0 0 8.102 16.102">
  <path id="Path_19" data-name="Path 19" d="M37.44,54.765a1.111,1.111,0,0,1-.51-.2l-5.809-5.6a3.341,3.341,0,0,1-.611-.612,2.167,2.167,0,0,1-.357-.509A1.412,1.412,0,0,1,30,47.172v-.815a1.408,1.408,0,0,1,.153-.662c.153-.2.255-.408.357-.51l.611-.611,5.758-5.758a.862.862,0,0,1,.51-.153.655.655,0,0,1,.509.2.906.906,0,0,1,.2.51v1.172c0,.1-.051.153-.051.2a.387.387,0,0,1-.1.2.631.631,0,0,1-.1.153c0,.051-.051.1-.152.2l-.153.153a.611.611,0,0,0-.2.2c-.1.1-.2.153-.2.2L32.65,46.51c-.1.1-.2.2-.2.306a.369.369,0,0,0,.2.306l4.484,4.433a.7.7,0,0,0,.2.153c.1.1.153.152.2.152l.153.153.152.153c.051.051.051.1.1.153s.051.153.1.2c0,.051.051.153.051.2V54a.653.653,0,0,1-.2.509A.538.538,0,0,1,37.44,54.765Z" transform="translate(-30 -38.663)" fill="#ee4036"/>
</svg>
