<svg xmlns="http://www.w3.org/2000/svg" width="14.319" height="23.695" viewBox="0 0 14.319 23.695">
  <path id="Path_21" data-name="Path 21" d="M55.275,57.16a.5.5,0,0,1-.408-.153c-.1-.1-.1-.306-.1-.611V34.229a1.29,1.29,0,0,1,.1-.611.5.5,0,0,1,.408-.153h2.9a.5.5,0,0,1,.408.153c.1.1.1.306.1.611v8.765a.382.382,0,0,0,.051.255c.051.1.1.1.153.1h5.962c.051,0,.1-.051.152-.1.051-.1.1-.153.1-.255V34.229a.885.885,0,0,1,.153-.611.5.5,0,0,1,.408-.153h2.955a.4.4,0,0,1,.357.153c.1.1.1.306.1.611V56.4a1.29,1.29,0,0,1-.1.611.463.463,0,0,1-.357.153H65.67a.382.382,0,0,1-.255-.051l-.2-.2a1.278,1.278,0,0,1-.1-.509V46.306c0-.255-.051-.356-.2-.356H58.893c-.153,0-.2.1-.2.356V56.4a.885.885,0,0,1-.153.611.5.5,0,0,1-.408.153Z" transform="translate(-54.765 -33.465)" fill="#ee4036"/>
</svg>
