<svg xmlns="http://www.w3.org/2000/svg" width="12.229" height="23.746" viewBox="0 0 12.229 23.746">
  <path id="Path_22" data-name="Path 22" d="M76.473,57.16a.4.4,0,0,1-.357-.153.885.885,0,0,1-.153-.611V36.522c0-.254-.051-.407-.2-.407h-3.77q-.076,0-.153-.153a1.132,1.132,0,0,1-.051-.459V34.178a1.037,1.037,0,0,1,.1-.56.5.5,0,0,1,.407-.153H83.556a.4.4,0,0,1,.356.153c.1.1.1.306.1.56V35.5a.946.946,0,0,1-.1.51.655.655,0,0,1-.407.1H80.091c-.153,0-.2.153-.2.407V56.4a1.05,1.05,0,0,1-.153.662.5.5,0,0,1-.408.153H76.473Z" transform="translate(-71.785 -33.465)" fill="#ee4036"/>
</svg>
