<svg xmlns="http://www.w3.org/2000/svg" width="17.682" height="23.797" viewBox="0 0 17.682 23.797">
  <path id="Path_23" data-name="Path 23" d="M86.919,57.16c-.306,0-.459-.255-.459-.815v-.1l.917-21.912c0-.611.2-.917.51-.917h3.159a.862.862,0,0,1,.51.153.871.871,0,0,1,.306.611l3.363,15.593a.178.178,0,0,0,.051.1h.1c.051,0,.051-.051.051-.1L98.792,34.28c.1-.509.357-.815.764-.815h3.21c.306,0,.459.357.459.917l.917,21.912v.1c0,.509-.153.815-.509.815h-2.191c-.306,0-.51-.306-.51-.866l-.611-17.02c0-.051,0-.1-.051-.1s-.051,0-.1.051L96.55,56.4c-.1.509-.357.815-.663.815H94.613c-.305,0-.56-.255-.662-.815l-3.516-17.02c0-.051-.051-.1-.1-.051v.1l-.662,16.867c0,.611-.153.866-.459.866Z" transform="translate(-86.46 -33.414)" fill="#ee4036"/>
</svg>
